<svg width="399" height="347" viewBox="0 0 399 347" fill="none" xmlns="http://www.w3.org/2000/svg">
<path d="M88.3401 345.265C102.452 347.369 116.849 346.505 130.614 342.728C144.379 338.951 157.208 332.345 168.285 323.33C179.361 314.314 188.441 303.089 194.945 290.369C201.449 277.649 206.059 249.453 206.059 249.453L207.064 244.177C207.064 244.177 209.418 227.969 213.195 220.703C216.972 213.436 222.335 207.113 228.885 202.202C235.434 197.291 243.003 193.918 251.03 192.333C259.057 190.749 267.335 190.993 275.251 193.049C336.901 209.035 371.547 166.172 380.706 152.648C382.751 149.597 384.636 146.442 386.353 143.195C395.874 125.55 399.8 105.424 397.607 85.4995L397.523 85.0502C394.985 68.6099 388.495 53.0364 378.611 39.6693C368.727 26.3022 355.745 15.5417 340.782 8.31307C340.641 8.25932 340.499 8.20556 340.337 8.14413C310.784 -5.03625 282.234 1.36487 271.341 4.74663C255.755 9.57184 204.685 30.2269 201.934 93.9535C201.585 102.217 199.363 110.294 195.436 117.573C191.508 124.853 185.979 131.144 179.266 135.971C172.553 140.798 164.833 144.035 156.689 145.435C148.546 146.835 132.261 144.054 132.261 144.054L125.485 143.176C125.485 143.176 98.1206 140.053 84.585 142.612C71.0494 145.172 58.1638 150.43 46.695 158.074C35.2262 165.719 25.4085 175.593 17.8261 187.109C10.2436 198.626 5.05134 211.549 2.55816 225.11C0.0649795 238.672 0.321823 252.594 3.31346 266.049C6.3051 279.504 11.9704 292.217 19.9722 303.431C27.9741 314.645 38.149 324.131 49.8915 331.325C61.6341 338.519 74.7044 343.273 88.3247 345.306L88.3401 345.265Z" fill="#151147"/>
</svg>
