<svg width="650" height="582" viewBox="0 0 650 582" fill="none" xmlns="http://www.w3.org/2000/svg">
<path d="M647.225 165.819C643.7 182.054 636.838 197.374 627.076 210.803C617.313 224.231 604.865 235.473 590.526 243.81C576.187 252.148 560.271 257.399 543.794 259.227C527.316 261.056 510.64 259.422 494.828 254.43L493.067 254.253C491.576 254.126 490.107 253.822 488.689 253.346C479.703 250.246 470.136 249.214 460.697 250.326C451.259 251.438 442.192 254.666 434.168 259.769C426.144 264.873 419.37 271.722 414.347 279.807C409.325 287.893 406.183 297.008 405.156 306.477C397.13 380.21 336.367 400.232 317.924 404.62C313.773 405.587 309.574 406.336 305.344 406.864C282.282 409.944 258.83 405.907 238.115 395.29L237.662 395.013C220.869 385.459 206.644 371.96 196.208 355.677C185.773 339.394 179.44 320.814 177.755 301.535C177.755 301.358 177.755 301.182 177.755 300.98C175.617 263.357 194.311 234.912 202.463 224.447C214.112 209.469 257.539 162.389 327.812 185.715C336.921 188.747 346.599 189.663 356.113 188.394C365.628 187.124 374.729 183.702 382.729 178.386C390.729 173.07 397.417 166 402.288 157.711C407.158 149.421 410.084 140.13 410.842 130.541C410.95 129.268 411.186 128.009 411.547 126.783C411.974 125.321 412.377 123.934 412.679 122.799C415.035 106.937 420.551 91.7125 428.898 78.0307C437.246 64.3489 448.253 52.4896 461.267 43.1585C474.28 33.8275 489.034 27.2152 504.649 23.7151C520.265 20.2151 536.423 19.8989 552.163 22.7852C567.902 25.6715 582.902 31.7014 596.269 40.5161C609.636 49.3309 621.098 60.7504 629.972 74.0951C638.845 87.4398 644.95 102.437 647.923 118.195C650.896 133.952 650.675 150.148 647.275 165.819H647.225ZM526.178 292.709C525.854 343.971 508.934 393.742 477.963 434.539C446.991 475.336 403.642 504.954 354.433 518.939C305.225 532.924 252.816 530.521 205.087 512.09C157.358 493.66 116.889 460.198 89.7641 416.737C62.6396 373.275 50.3259 322.163 54.6743 271.086C59.0227 220.008 79.7983 171.726 113.877 133.498C147.956 95.2707 193.497 69.1642 243.651 59.104C293.806 49.0438 345.863 55.5737 391.997 77.7119C399.601 60.7946 410.226 45.4121 423.347 32.3219C366.799 3.11914 302.247 -6.66327 239.612 4.47824C176.978 15.6198 119.727 47.0686 76.6604 93.9909C33.5936 140.913 7.09397 200.712 1.23462 264.197C-4.62472 327.681 10.4805 391.337 44.2285 445.381C77.9766 499.424 128.5 540.865 188.032 563.332C247.565 585.8 312.812 588.051 373.745 569.739C434.679 551.428 487.925 513.568 525.302 461.978C562.678 410.388 582.115 347.923 580.625 284.186C570.419 287.772 559.858 290.249 549.124 291.574C541.515 292.529 533.844 292.909 526.178 292.709Z" fill="#F4F4F4"/>
</svg>
