<svg width="565" height="506" viewBox="0 0 565 506" fill="none" xmlns="http://www.w3.org/2000/svg">
<path d="M562.588 144.165C559.524 158.28 553.559 171.6 545.073 183.275C536.588 194.95 525.768 204.724 513.303 211.973C500.839 219.222 487.004 223.786 472.682 225.376C458.36 226.966 443.864 225.545 430.12 221.205L428.589 221.052C427.293 220.941 426.016 220.676 424.783 220.263C416.972 217.568 408.656 216.671 400.452 217.638C392.248 218.604 384.367 221.411 377.392 225.848C370.417 230.285 364.529 236.239 360.163 243.269C355.798 250.299 353.067 258.224 352.174 266.456C345.197 330.561 292.381 347.968 276.35 351.783C272.741 352.624 269.091 353.275 265.414 353.734C245.368 356.412 224.983 352.902 206.977 343.671L206.583 343.43C191.987 335.124 179.621 323.388 170.55 309.231C161.479 295.074 155.975 278.92 154.51 262.159C154.51 262.005 154.51 261.852 154.51 261.677C152.651 228.966 168.901 204.236 175.987 195.138C186.113 182.115 223.861 141.184 284.945 161.463C292.862 164.1 301.275 164.896 309.545 163.792C317.815 162.689 325.726 159.713 332.68 155.091C339.633 150.47 345.447 144.323 349.681 137.116C353.914 129.909 356.457 121.832 357.117 113.494C357.211 112.387 357.416 111.293 357.729 110.228C358.101 108.956 358.451 107.75 358.713 106.764C360.761 92.973 365.556 79.7363 372.812 67.8411C380.067 55.946 389.636 45.6353 400.947 37.5227C412.259 29.4101 425.083 23.6613 438.657 20.6183C452.23 17.5753 466.275 17.3004 479.957 19.8098C493.638 22.3192 506.676 27.5617 518.296 35.2254C529.915 42.889 539.877 52.8173 547.591 64.4194C555.304 76.0216 560.611 89.0604 563.195 102.76C565.779 116.46 565.587 130.541 562.632 144.165H562.588ZM457.37 254.486C457.088 299.054 442.381 342.326 415.46 377.795C388.539 413.265 350.858 439.015 308.084 451.174C265.311 463.333 219.755 461.243 178.268 445.219C136.78 429.195 101.603 400.103 78.0257 362.317C54.4483 324.531 43.7448 280.094 47.5246 235.686C51.3044 191.279 69.3632 149.301 98.9857 116.066C128.608 82.8299 168.193 60.1324 211.789 51.3859C255.385 42.6394 300.635 48.3166 340.736 67.5639C347.346 52.8558 356.581 39.482 367.986 28.1012C318.833 2.71183 262.722 -5.79315 208.278 3.89345C153.834 13.5801 104.071 40.9221 66.6356 81.7172C29.2006 122.512 6.1663 174.502 1.07317 229.697C-4.01995 284.891 9.10996 340.235 38.4448 387.221C67.7797 434.208 111.696 470.236 163.443 489.77C215.191 509.303 271.906 511.26 324.871 495.34C377.836 479.42 424.12 446.504 456.608 401.651C489.097 356.798 505.992 302.49 504.697 247.075C495.826 250.194 486.646 252.347 477.316 253.499C470.701 254.33 464.034 254.659 457.37 254.486Z" fill="#FCE0DA"/>
</svg>
