<svg width="54" height="54" viewBox="0 0 54 54" fill="none" xmlns="http://www.w3.org/2000/svg">
<path d="M26.1918 24.89L30.891 11.2791L18.4854 29.11H27.8083L23.1092 42.7209L35.5148 24.89H26.1918Z" fill="#A6CDCB"/>
<path d="M35.5149 24.8901H28.3976L25.462 29.1101H27.8084L23.1093 42.7211L35.5149 24.8901Z" fill="#7BB9B6"/>
<path d="M2.84032 24.9481C2.85846 24.9521 2.87681 24.9542 2.89516 24.957C2.90276 24.9582 2.91003 24.9599 2.91773 24.9609C2.91847 24.961 2.91921 24.9609 2.91995 24.961C2.95127 24.9646 2.9826 24.9667 3.01392 24.9667C3.01402 24.9667 3.01413 24.9667 3.01434 24.9667C3.01508 24.9667 3.01582 24.9668 3.01656 24.9668C3.05653 24.9668 3.09576 24.9631 3.13436 24.9574C3.13732 24.957 3.14027 24.9567 3.14312 24.9561C3.18372 24.9498 3.22327 24.9404 3.26188 24.9283C3.26209 24.9282 3.2623 24.9282 3.26251 24.9281C3.3529 24.8995 3.43717 24.8558 3.51173 24.7992L7.03997 22.2973C7.40995 22.0349 7.49718 21.5224 7.23488 21.1525C6.97258 20.7824 6.46 20.6953 6.09002 20.9576L4.14191 22.3391C5.04598 17.9694 7.2179 13.889 10.372 10.6898C13.977 7.03345 18.7508 4.64269 23.8142 3.95789C24.2636 3.89703 24.5787 3.48349 24.5179 3.03409C24.4572 2.58468 24.0442 2.26933 23.5941 2.33029C18.1725 3.06351 13.0615 5.62292 9.2026 9.53675C5.88203 12.9047 3.57955 17.186 2.5835 21.7771L1.53061 19.9713C1.30227 19.5796 0.799396 19.4471 0.407581 19.6754C0.0158704 19.9039 -0.116598 20.4067 0.111847 20.7985L2.30454 24.5592C2.42066 24.7582 2.61504 24.8995 2.84032 24.9481Z" fill="#044864"/>
<path d="M22.2972 46.96C22.0349 46.59 21.5223 46.5028 21.1523 46.7651C20.7823 47.0275 20.6951 47.54 20.9574 47.9099L22.37 49.902C17.9213 49.0169 13.8789 46.8726 10.6068 43.6471C6.98738 40.079 4.67625 35.5504 3.92352 30.5509C3.85591 30.1025 3.43836 29.7929 2.98928 29.8613C2.54082 29.9288 2.23201 30.3471 2.29951 30.7955C3.10561 36.1489 5.57958 40.9973 9.45397 44.8165C12.8776 48.1915 17.0899 50.4603 21.7265 51.4458L19.9711 52.4693C19.5793 52.6977 19.4468 53.2005 19.6752 53.5923C19.8279 53.8541 20.1028 54.0001 20.3854 54.0001C20.5258 54.0001 20.6681 53.964 20.7982 53.8883L24.559 51.6957C24.7581 51.5796 24.8992 51.3852 24.948 51.1599C24.9968 50.9346 24.9486 50.6993 24.8153 50.5113L22.2972 46.96Z" fill="#044864"/>
<path d="M53.8879 33.2017L51.6952 29.4409C51.5792 29.2417 51.3847 29.1005 51.1594 29.0519C50.934 29.0029 50.6987 29.0514 50.5108 29.1846L46.9597 31.7026C46.5897 31.965 46.5025 32.4775 46.7648 32.8474C47.0271 33.2175 47.5396 33.3046 47.9096 33.0423L49.8096 31.6949C48.8949 36.2406 46.6697 40.3532 43.3285 43.647C39.7056 47.2182 35.1386 49.4646 30.1214 50.1433C29.672 50.2041 29.357 50.6177 29.4177 51.0671C29.4734 51.4792 29.8258 51.7784 30.2305 51.7784C30.2671 51.7784 30.3042 51.7759 30.3415 51.7709C35.7139 51.0442 40.6034 48.6395 44.4815 44.8165C48.0203 41.3281 50.3898 36.9809 51.3883 32.1749L52.4691 34.0289C52.6217 34.2906 52.8967 34.4366 53.1792 34.4366C53.3197 34.4366 53.462 34.4005 53.592 34.3248C53.9839 34.0961 54.1163 33.5935 53.8879 33.2017Z" fill="#044864"/>
<path d="M32.3732 7.3864C32.5374 7.3864 32.7033 7.33725 32.8475 7.23494C33.2175 6.97254 33.3047 6.46007 33.0424 6.09019L31.7271 4.23521C36.1877 5.16713 40.3426 7.42268 43.5639 10.69C47.1723 14.3497 49.4954 19.1633 50.1051 24.2435C50.1552 24.6607 50.5095 24.9669 50.9194 24.9669C50.952 24.9669 50.985 24.965 51.0182 24.9609C51.4686 24.9069 51.7897 24.498 51.7357 24.0478C51.0828 18.6079 48.596 13.4545 44.7334 9.5369C41.3006 6.05517 36.8767 3.64669 32.1248 2.64073L34.0287 1.53068C34.4205 1.30223 34.553 0.799465 34.3246 0.407649C34.0962 0.0158338 33.5932 -0.116424 33.2016 0.11181L29.4408 2.30461C29.2417 2.42073 29.1006 2.61511 29.0518 2.84039C29.003 3.06567 29.0512 3.30097 29.1846 3.48902L31.7026 7.04014C31.8627 7.26595 32.1159 7.3864 32.3732 7.3864Z" fill="#044864"/>
</svg>
