<svg width="54" height="54" viewBox="0 0 54 54" fill="none" xmlns="http://www.w3.org/2000/svg">
<path d="M46.827 7.17292C42.5232 2.86906 36.6057 0 30.055 0H28.4727V25.5272H53.9999V23.9449C53.9999 17.3943 51.1307 11.4767 46.827 7.17292Z" fill="#A6CDCB"/>
<path d="M53.9999 23.9451V25.5274H28.4727L46.827 7.1731C51.1307 11.4768 53.9999 17.3945 53.9999 23.9451Z" fill="#7BB9B6"/>
<path d="M47.4599 29.4829V28.6918H25.3083V6.54013H24.5171C24.1374 6.60331 14.7703 5.68562 6.954 13.5021C-2.31806 22.7742 -2.31806 37.7739 6.954 47.046C16.2261 56.318 31.2258 56.318 40.4978 47.046C48.3144 39.2296 47.3967 29.8627 47.4599 29.4829Z" fill="#044864"/>
<path d="M40.4981 47.0459C31.2261 56.318 16.2263 56.318 6.95429 47.0459L25.3086 28.6917H47.4602V29.4828C47.3968 29.8626 48.3146 39.2294 40.4981 47.0459Z" fill="#012F42"/>
</svg>
