<svg width="54" height="44" viewBox="0 0 54 44" fill="none" xmlns="http://www.w3.org/2000/svg">
<path d="M30.9299 43.673C30.5233 43.673 30.1561 43.3925 30.0626 42.9793C29.9539 42.4998 30.2546 42.0232 30.7341 41.9146C34.6951 41.0177 38.2953 38.7351 40.8716 35.4872C43.4882 32.1886 44.9291 28.0251 44.9291 23.7639C44.9291 19.2563 43.3366 14.9089 40.4451 11.5224C40.1259 11.1485 40.1702 10.5867 40.5441 10.2674C40.918 9.94815 41.4798 9.99256 41.7991 10.3662C44.9657 14.0747 46.7094 18.8327 46.7094 23.7637C46.7094 28.425 45.1315 32.9813 42.2664 36.5933C39.4388 40.1581 35.4828 42.6644 31.1273 43.6506C31.0612 43.6659 30.9951 43.673 30.9299 43.673Z" fill="#044864"/>
<path d="M51.762 8.68751C51.666 8.37986 51.4447 8.1185 51.1554 7.97053C50.8684 7.82372 50.5307 7.79714 50.2286 7.89786C46.7945 9.04421 45.4337 11.1496 45.008 12.0017C43.7341 14.5512 44.4459 17.546 44.8109 18.7148C44.9068 19.0226 45.128 19.2841 45.4174 19.4323C45.5898 19.5205 45.7803 19.5653 45.9703 19.5653C46.0971 19.5653 46.2236 19.5454 46.3444 19.505C49.7789 18.3583 51.1395 16.253 51.5651 15.4011C52.8385 12.8525 52.1272 9.85727 51.762 8.68751Z" fill="#7BB9B6"/>
<path d="M53.6771 22.754C53.4584 22.5168 53.1506 22.3752 52.8328 22.3654C49.2144 22.2545 47.2091 23.7587 46.5152 24.4109C44.4386 26.3626 44.0706 29.4189 44.0088 30.6425C43.9925 30.9643 44.1098 31.286 44.3301 31.5252C44.5489 31.7623 44.8566 31.904 45.1745 31.9138C45.3031 31.9177 45.4293 31.9196 45.5537 31.9196C48.934 31.9196 50.8228 30.4973 51.492 29.8683C53.5686 27.9166 53.9366 24.8603 53.9984 23.6368C54.0147 23.3149 53.8977 22.993 53.6771 22.754Z" fill="#7BB9B6"/>
<path d="M50.232 37.2822C50.1711 36.9653 49.9841 36.6826 49.7192 36.5069C46.703 34.5042 44.2061 34.7261 43.2725 34.9146C40.4789 35.4783 38.5553 37.8815 37.8578 38.8884C37.6742 39.1534 37.604 39.4887 37.6653 39.808C37.7262 40.1251 37.9132 40.4077 38.1781 40.5837C40.2774 41.9774 42.1245 42.2936 43.3687 42.2936C43.9122 42.2936 44.3409 42.2332 44.6248 42.1759C47.4184 41.6122 49.342 39.2091 50.0395 38.2021C50.2231 37.9368 50.2932 37.6016 50.232 37.2822Z" fill="#7BB9B6"/>
<path d="M41.5533 4.22037C40.3061 1.80998 37.6405 0.733562 36.5524 0.382771C36.253 0.286056 35.9196 0.315904 35.6379 0.464615C35.3545 0.614171 35.1403 0.87468 35.0503 1.17885C34.7213 2.28881 34.0903 5.12973 35.3341 7.53348C36.5814 9.94376 39.2469 11.0201 40.3351 11.3711C40.4509 11.4084 40.5716 11.4269 40.6926 11.4269C40.8846 11.4269 41.0768 11.3804 41.2496 11.2892C41.533 11.1397 41.7472 10.8792 41.8372 10.575C42.1661 9.46504 42.7971 6.62412 41.5533 4.22037Z" fill="#7BB9B6"/>
<path d="M23.0698 43.673C23.0046 43.673 22.9387 43.6657 22.8724 43.651C18.5169 42.6647 14.5611 40.1584 11.7333 36.5937C8.86815 32.9817 7.29022 28.4254 7.29022 23.764C7.29022 18.833 9.03405 14.0751 12.2005 10.3666C12.5197 9.9927 13.0815 9.9484 13.4555 10.2678C13.8294 10.5869 13.8736 11.1489 13.5545 11.5227C10.6628 14.9091 9.07033 19.2566 9.07033 23.7641C9.07033 28.0254 10.5114 32.1889 13.1278 35.4874C15.7041 38.7353 19.3044 41.0179 23.2654 41.9148C23.7449 42.0235 24.0455 42.5001 23.9369 42.9795C23.8434 43.3926 23.4764 43.673 23.0698 43.673Z" fill="#044864"/>
<path d="M7.48477 24.4108C6.79068 23.7585 4.78603 22.2545 1.16717 22.3654C0.84897 22.3752 0.541105 22.517 0.322362 22.7542C0.101932 22.9935 -0.0151391 23.3153 0.00131406 23.6369C0.063119 24.8602 0.431101 27.9166 2.50747 29.8683C3.17699 30.4973 5.06542 31.9196 8.44581 31.9196C8.57016 31.9196 8.69672 31.9177 8.82497 31.9138C9.14317 31.904 9.45104 31.7622 9.66978 31.525C9.89021 31.2857 10.0073 30.9639 9.99083 30.6423C9.92913 29.4187 9.56125 26.3624 7.48477 24.4108Z" fill="#7BB9B6"/>
<path d="M16.1417 38.8882C15.4443 37.8811 13.5202 35.4779 10.727 34.9142H10.7271C9.79334 34.7256 7.29667 34.5037 4.28047 36.5061C4.01521 36.6822 3.82822 36.9648 3.76736 37.2818C3.70608 37.6012 3.77622 37.9364 3.95984 38.2014C4.65731 39.2085 6.58138 41.6117 9.37431 42.1753C9.65845 42.2327 10.0868 42.293 10.6307 42.293C11.8748 42.2929 13.7225 41.9766 15.821 40.5833C16.0862 40.4073 16.273 40.1248 16.3339 39.808C16.3955 39.4887 16.3255 39.1535 16.1417 38.8882Z" fill="#7BB9B6"/>
<path d="M8.99206 12.0017C8.56649 11.1497 7.20573 9.04419 3.77176 7.89785C3.46959 7.79681 3.13188 7.82338 2.84468 7.97051C2.55496 8.1187 2.3339 8.38016 2.23813 8.6876C1.8731 9.85693 1.1614 12.8519 2.43515 15.4013C2.86072 16.2532 4.22148 18.3586 7.65566 19.5052C7.77663 19.5455 7.90309 19.5655 8.02986 19.5655C8.21992 19.5655 8.41029 19.5208 8.58242 19.4326C8.87193 19.2845 9.0931 19.0232 9.18929 18.7152C9.5541 17.5457 10.2655 14.5505 8.99206 12.0017Z" fill="#7BB9B6"/>
<path d="M18.9495 1.17988C18.8592 0.875388 18.645 0.61509 18.3615 0.46564C18.0801 0.31714 17.747 0.287397 17.4473 0.383796C16.3591 0.734692 13.6936 1.81111 12.4463 4.2214C11.2026 6.62504 11.8335 9.46596 12.1625 10.5761C12.2528 10.8806 12.467 11.1409 12.7505 11.2904C12.9231 11.3815 13.1153 11.4279 13.3072 11.4279C13.4282 11.4279 13.5489 11.4093 13.6647 11.3721C14.7529 11.0212 17.4184 9.94468 18.6657 7.5345C19.9095 5.13075 19.2786 2.28994 18.9495 1.17988Z" fill="#7BB9B6"/>
<path d="M39.4796 20.2713C39.375 19.9491 39.0963 19.7142 38.7609 19.6656L31.1856 18.5648L27.7979 11.7003C27.6479 11.3965 27.3384 11.2041 26.9996 11.2041C26.6607 11.2041 26.3513 11.3965 26.2013 11.7003L22.8135 18.5648L15.2383 19.6656C14.903 19.7142 14.6243 19.9491 14.5196 20.2713C14.4149 20.5935 14.5023 20.9473 14.7448 21.1838L20.2263 26.527L18.9324 34.0718C18.8751 34.4056 19.0124 34.7432 19.2865 34.9424C19.5605 35.1414 19.9238 35.1677 20.2238 35.0102L26.9993 31.448L33.775 35.0102C33.9054 35.0786 34.0475 35.1124 34.1891 35.1124C34.3737 35.1124 34.5574 35.055 34.7123 34.9423C34.9864 34.7431 35.1237 34.4055 35.0664 34.0717L33.7724 26.527L39.254 21.1838C39.497 20.9472 39.5842 20.5935 39.4796 20.2713Z" fill="#A6CDCB"/>
<path d="M34.1897 35.1125C34.3743 35.1125 34.558 35.0552 34.7129 34.9423C34.987 34.7432 35.1243 34.4056 35.067 34.0718L33.773 26.5271L39.2546 21.1839C39.4972 20.9473 39.5844 20.5937 39.4798 20.2715C39.3752 19.9493 39.0965 19.7144 38.7611 19.6658L36.5934 19.3508L30.3033 25.4872L31.8222 33.9834L33.7755 35.0104C33.9059 35.0787 34.048 35.1125 34.1897 35.1125Z" fill="#7BB9B6"/>
</svg>
