<svg width="54" height="54" viewBox="0 0 54 54" fill="none" xmlns="http://www.w3.org/2000/svg">
<path d="M27 44.47C36.6547 44.47 44.4814 36.6433 44.4814 26.9885C44.4814 17.3338 36.6547 9.50708 27 9.50708C17.3453 9.50708 9.51855 17.3338 9.51855 26.9885C9.51855 36.6433 17.3453 44.47 27 44.47Z" fill="#C4E9E7"/>
<path d="M27 9.50708C26.0541 9.50708 25.126 9.58323 24.2207 9.72793C32.5545 11.0594 38.9229 18.2798 38.9229 26.9885C38.9229 35.6973 32.5545 42.9176 24.2207 44.2491C25.126 44.3937 26.054 44.47 27 44.47C36.6548 44.47 44.4815 36.6432 44.4815 26.9885C44.4815 17.3338 36.6548 9.50708 27 9.50708Z" fill="#A6CDCB"/>
<path d="M29.3635 32.3087C27.2819 32.2603 24.503 26.265 20.4577 28.3181C19.163 28.9751 14.7 26.7269 14.8888 25.7437C15.3468 23.3575 13.2132 23.0527 13.9367 21.5454C14.3303 20.7256 14.8404 19.8026 15.9054 20.3513C16.9704 20.8999 16.4661 22.5459 17.2992 22.5136C18.1323 22.4813 18.2181 21.0047 18.5382 19.8672C18.8583 18.7295 20.1896 19.0906 20.5285 18.4623C20.8674 17.8339 21.4483 16.6721 22.7796 15.9217C24.111 15.1713 23.1185 14.5904 23.53 14.1789C23.9415 13.7675 25.8258 14.0513 26.2653 13.4044C27.2235 11.9936 27.3773 10.4818 26.9482 9.50781C20.1968 9.52754 14.3461 13.374 11.4509 18.9926C11.4506 18.9932 11.4503 18.9939 11.45 18.9944C10.5988 20.6466 10.2045 23.04 10.6682 24.8397C11.5401 28.2233 15.2919 30.0433 16.9814 30.7044C17.4144 30.8739 17.6445 31.3479 17.5044 31.7914C17.1074 33.0486 16.723 35.4769 19.1005 36.6656C22.3924 38.3115 22.3924 39.3282 22.0535 41.9907C21.973 42.6231 21.9312 43.2003 21.9344 43.7235C22.077 43.7666 22.2204 43.8078 22.3646 43.8474C22.3697 43.8488 22.3748 43.8501 22.3799 43.8515C22.5192 43.8896 22.6593 43.926 22.8 43.9607C22.8085 43.9628 22.8171 43.9649 22.8256 43.9669C22.9633 44.0006 23.1015 44.0327 23.2404 44.0632C23.2513 44.0656 23.2622 44.0679 23.2731 44.0702C23.4101 44.1 23.5478 44.1281 23.6859 44.1546C23.6982 44.1569 23.7104 44.1594 23.7227 44.1617C23.8605 44.1878 23.9987 44.2123 24.1376 44.2352C24.1498 44.2372 24.162 44.2393 24.1741 44.2412C24.3143 44.264 24.4551 44.2851 24.5964 44.3045C24.6069 44.3059 24.6173 44.3074 24.6278 44.3089C24.7725 44.3285 24.9178 44.3465 25.0637 44.3625C25.0704 44.3632 25.0771 44.3641 25.0837 44.3648C25.2357 44.3814 25.3882 44.3961 25.5413 44.4088C25.5415 44.4088 25.5419 44.4088 25.5421 44.4089C26.8865 43.436 28.909 42.2975 29.2667 40.9741C29.7508 39.1829 34.4708 37.3433 34.1077 34.826C33.99 34.0101 31.4452 32.3571 29.3635 32.3087Z" fill="#044864"/>
<path d="M44.4817 26.9886C44.4817 19.1359 39.3039 12.4928 32.1761 10.2864C33.3308 11.7235 34.9668 13.8927 34.8399 14.4954C34.6463 15.4152 35.4209 16.5362 35.4209 16.5362C35.4209 16.5362 33.8717 18.8523 33.9685 20.8856C34.0654 22.9188 36.2206 26.45 37.1647 26.6024C38.1087 26.7548 40.0605 24.6161 40.9881 25.4845C42.9977 27.366 41.0743 35.1615 40.0606 38.6071C42.8102 35.5186 44.4817 31.4491 44.4817 26.9886Z" fill="#044864"/>
<path d="M44.4812 26.9859C44.4812 26.8481 44.4792 26.711 44.4759 26.574C44.4749 26.5301 44.4732 26.4865 44.4718 26.4427C44.4689 26.3478 44.4655 26.2531 44.4611 26.1586C44.4588 26.1088 44.4561 26.0591 44.4534 26.0094C44.4483 25.9179 44.4425 25.8266 44.436 25.7354C44.4326 25.6885 44.4295 25.6416 44.4258 25.5947C44.4173 25.487 44.4077 25.3796 44.3973 25.2724C44.3945 25.2442 44.3923 25.2158 44.3893 25.1876C44.3756 25.0533 44.3602 24.9193 44.3435 24.7858C44.3388 24.7487 44.3335 24.7118 44.3285 24.6747C44.3156 24.5773 44.3021 24.48 44.2877 24.3832C44.2806 24.3358 44.273 24.2884 44.2656 24.2411C44.2517 24.153 44.2372 24.065 44.222 23.9774C44.2137 23.9299 44.2055 23.8826 44.1969 23.8353C44.1797 23.741 44.1615 23.6472 44.1429 23.5534C44.1353 23.5155 44.1282 23.4775 44.1204 23.4397C44.0936 23.3098 44.0656 23.1802 44.0358 23.0514C44.0301 23.0268 44.024 23.0025 44.0182 22.9781C43.9935 22.873 43.9681 22.7684 43.9416 22.6641C43.9304 22.6196 43.9184 22.5754 43.9068 22.5311C43.8845 22.4459 43.8615 22.361 43.8379 22.2763C43.8247 22.2292 43.8114 22.1822 43.7979 22.1353C43.7733 22.0499 43.7479 21.965 43.722 21.8802C43.7091 21.8377 43.6964 21.7952 43.6831 21.7528C43.6478 21.6401 43.6113 21.5277 43.5738 21.4159C43.5695 21.4032 43.5655 21.3903 43.5612 21.3777C43.5195 21.2546 43.4762 21.1323 43.4318 21.0103C43.417 20.9696 43.4015 20.9292 43.3864 20.8887C43.3556 20.8059 43.3243 20.7234 43.2924 20.6412C43.2744 20.5952 43.2562 20.5492 43.2378 20.5035C43.2065 20.425 43.1745 20.3468 43.1421 20.269C43.1236 20.2248 43.1054 20.1806 43.0866 20.1366C43.0488 20.048 43.01 19.9599 42.9709 19.8721C42.957 19.8409 42.9435 19.8094 42.9293 19.7782C42.8765 19.6616 42.8223 19.5458 42.767 19.4305C42.7504 19.3959 42.7332 19.3616 42.7163 19.3272C42.6761 19.2449 42.6356 19.1628 42.5942 19.0813C42.5718 19.0372 42.549 18.9935 42.5262 18.9496C42.4885 18.8768 42.4503 18.8043 42.4116 18.7322C42.3879 18.688 42.364 18.6438 42.34 18.5997C42.2984 18.524 42.2562 18.4487 42.2136 18.3737C42.1921 18.3358 42.1709 18.2977 42.1492 18.2599C42.086 18.1505 42.0219 18.0417 41.9564 17.9338C41.9411 17.9087 41.9253 17.8839 41.9099 17.8588C41.858 17.7742 41.8056 17.6899 41.7522 17.6062C41.7257 17.5647 41.6986 17.5234 41.6718 17.4821C41.6281 17.4147 41.584 17.3475 41.5393 17.2807C41.5102 17.2373 41.4809 17.1939 41.4515 17.1508C41.4064 17.0847 41.3607 17.019 41.3147 16.9535C41.2862 16.9129 41.258 16.8723 41.2292 16.832C41.1715 16.7513 41.113 16.6713 41.0539 16.5917C41.0365 16.5682 41.0195 16.5444 41.0019 16.5208C40.9273 16.4213 40.8516 16.3228 40.775 16.2249C40.7451 16.1867 40.7146 16.149 40.6844 16.111C40.6347 16.0485 40.5847 15.986 40.534 15.9242C40.4999 15.8824 40.4654 15.8409 40.4308 15.7994C40.3821 15.741 40.3328 15.6829 40.2833 15.625C40.2485 15.5843 40.2137 15.5437 40.1786 15.5033C40.1241 15.4407 40.0688 15.3788 40.0135 15.3171C39.9832 15.2834 39.9532 15.2493 39.9227 15.2158C39.8401 15.1251 39.7564 15.0352 39.6719 14.9463C39.64 14.9127 39.6074 14.8796 39.5752 14.8463C39.5186 14.7877 39.4619 14.7292 39.4045 14.6715C39.3656 14.6322 39.3262 14.5935 39.287 14.5547C39.2346 14.5029 39.1819 14.4514 39.1288 14.4003C39.0883 14.3613 39.0477 14.3223 39.0068 14.2836C38.9517 14.2316 38.8962 14.1802 38.8405 14.1289C38.8017 14.0932 38.7632 14.0572 38.7241 14.0219C38.6447 13.95 38.5646 13.8791 38.4839 13.8087C38.4423 13.7723 38.4002 13.7365 38.3581 13.7005C38.2921 13.644 38.226 13.5878 38.1591 13.5322C38.1161 13.4965 38.0726 13.4614 38.0294 13.4261C37.9732 13.3803 37.9168 13.3348 37.8601 13.2898C37.8144 13.2535 37.7685 13.2176 37.7226 13.1818C37.6658 13.1377 37.6088 13.0941 37.5515 13.0507C37.5061 13.0163 37.461 12.9818 37.4153 12.948C37.3497 12.8993 37.2834 12.8513 37.2171 12.8034C37.1731 12.7717 37.1294 12.7397 37.0851 12.7084C36.9929 12.6432 36.9002 12.5788 36.8068 12.5155C36.7609 12.4843 36.7146 12.454 36.6684 12.4233C36.6079 12.383 36.5473 12.3429 36.4863 12.3034C36.4361 12.2709 36.3856 12.2388 36.3351 12.2069C36.2763 12.1696 36.2172 12.1328 36.1579 12.0962C36.1072 12.0649 36.0564 12.0337 36.0052 12.0029C35.9421 11.9649 35.8785 11.9276 35.8148 11.8903C35.7675 11.8626 35.7203 11.8346 35.6728 11.8072C35.5683 11.7473 35.463 11.6885 35.3571 11.6308C35.3099 11.6049 35.2621 11.5802 35.2145 11.5547C35.1486 11.5196 35.0827 11.4845 35.0162 11.4501C34.9625 11.4224 34.9086 11.3952 34.8546 11.368C34.7929 11.3368 34.7309 11.306 34.6688 11.2757C34.6139 11.2488 34.5587 11.2221 34.5034 11.1957C34.4398 11.1655 34.3758 11.1358 34.3118 11.1063C34.2582 11.0816 34.2048 11.0566 34.1509 11.0325C34.0698 10.9961 33.9882 10.9607 33.9065 10.9255C33.8341 10.8944 33.7615 10.8637 33.6886 10.8335C33.6122 10.8019 33.5358 10.7703 33.4589 10.7397C33.403 10.7174 33.3468 10.696 33.2906 10.6743C33.2254 10.6491 33.16 10.6241 33.0944 10.5997C33.0361 10.578 32.9775 10.5567 32.9189 10.5356C32.8535 10.5121 32.7879 10.4891 32.7222 10.4663C32.6643 10.4463 32.6065 10.4261 32.5484 10.4067C32.4751 10.3822 32.4015 10.3586 32.3277 10.3351C32.277 10.3189 32.2266 10.3022 32.1758 10.2864C33.3304 11.7235 34.9665 13.8927 34.8396 14.4954C34.6991 15.1629 35.0682 15.9359 35.2815 16.3101C37.3538 18.9917 38.664 22.2917 38.8877 25.8866C39.6727 25.4312 40.4823 25.0114 40.9877 25.4846C42.9973 27.3661 41.0738 35.1616 40.0602 38.6072C40.0603 38.6071 40.0604 38.607 40.0605 38.6068C40.913 37.6492 41.6615 36.5971 42.289 35.4685C42.2962 35.4555 42.3036 35.4427 42.3108 35.4297C42.3648 35.332 42.4176 35.2337 42.4697 35.1349C42.4806 35.1145 42.4914 35.0939 42.5022 35.0733C42.5514 34.979 42.5998 34.8842 42.6474 34.7889C42.6602 34.7635 42.6728 34.7379 42.6854 34.7124C42.731 34.6201 42.7758 34.5273 42.8198 34.4341C42.8334 34.4053 42.8468 34.3763 42.8603 34.3474C42.9028 34.2559 42.9446 34.1642 42.9856 34.072C42.9993 34.041 43.0128 34.0099 43.0264 33.9788C43.0663 33.8872 43.106 33.7954 43.1445 33.7029C43.1574 33.6719 43.1699 33.6405 43.1827 33.6094C43.221 33.516 43.2589 33.4224 43.2956 33.3281C43.3067 33.2996 43.3174 33.2707 43.3283 33.2421C43.3658 33.1444 43.4029 33.0466 43.4387 32.9481C43.4452 32.9302 43.4512 32.9121 43.4576 32.894C43.5794 32.555 43.6908 32.2112 43.7919 31.8629C43.7972 31.8442 43.8032 31.8257 43.8084 31.8071C43.8324 31.7234 43.8547 31.6392 43.8775 31.555C43.8911 31.5047 43.9051 31.4547 43.9183 31.4042C43.938 31.3284 43.9565 31.2522 43.9752 31.1762C43.9898 31.1167 44.0047 31.0572 44.0187 30.9975C44.0357 30.9251 44.0516 30.8525 44.0678 30.7798C44.0819 30.7157 44.0963 30.6515 44.1098 30.5871C44.1245 30.5167 44.1384 30.446 44.1523 30.3753C44.1655 30.3077 44.1786 30.2402 44.1912 30.1723C44.2038 30.1035 44.2159 30.0346 44.2278 29.9655C44.2399 29.895 44.2516 29.8246 44.2628 29.7539C44.2735 29.6863 44.2839 29.6186 44.2939 29.5508C44.3047 29.4778 44.3148 29.4047 44.3246 29.3314C44.3335 29.265 44.3422 29.1984 44.3504 29.1317C44.3597 29.0562 44.3682 28.9804 44.3764 28.9046C44.3834 28.8396 44.3906 28.7745 44.397 28.7093C44.4047 28.6302 44.4115 28.5508 44.4181 28.4714C44.4234 28.4089 44.4289 28.3465 44.4335 28.2838C44.4397 28.1996 44.4446 28.1152 44.4496 28.0308C44.4531 27.972 44.4571 27.9135 44.4599 27.8545C44.4645 27.7602 44.4676 27.6655 44.4707 27.5709C44.4722 27.5216 44.4747 27.4723 44.4758 27.4228C44.4793 27.2807 44.4812 27.1381 44.4812 26.9951C44.4812 26.9928 44.4813 26.9905 44.4813 26.9883C44.4813 26.9878 44.4812 26.9868 44.4812 26.9859Z" fill="#012F42"/>
<path d="M2.81987 24.9169C2.83769 24.9208 2.85573 24.9229 2.87366 24.9256C2.88073 24.9266 2.88748 24.9283 2.89465 24.9292C2.89539 24.9293 2.89602 24.9292 2.89676 24.9293C2.92703 24.9328 2.9573 24.9349 2.98746 24.9349C2.98757 24.9349 2.98767 24.9349 2.98788 24.9349C2.98862 24.9349 2.98936 24.935 2.9901 24.935C3.0287 24.935 3.06656 24.9314 3.1039 24.9259C3.10664 24.9255 3.10949 24.9252 3.11223 24.9247C3.15136 24.9186 3.18964 24.9095 3.22687 24.8978C3.22708 24.8978 3.2273 24.8977 3.22751 24.8976C3.31473 24.87 3.39605 24.8278 3.46798 24.7732L7.00086 22.268C7.35777 22.0149 7.44193 21.5203 7.18881 21.1635C6.93568 20.8065 6.44124 20.7223 6.08434 20.9755L4.07284 22.4019C4.96985 17.9941 7.15316 13.8758 10.3325 10.6511C13.9461 6.98598 18.7313 4.58962 23.8068 3.90313C24.2404 3.84438 24.5442 3.44539 24.4856 3.01192C24.4269 2.57823 24.0286 2.27395 23.5944 2.33302C18.1732 3.06634 13.0627 5.62533 9.20421 9.53885C5.86581 12.9247 3.55646 17.2339 2.56938 21.853L1.47662 19.9788C1.2563 19.6008 0.771245 19.4733 0.393245 19.6934C0.015245 19.9138 -0.112478 20.3989 0.107952 20.7768L2.30307 24.5417C2.41498 24.7337 2.6026 24.87 2.81987 24.9169Z" fill="#044864"/>
<path d="M22.2679 46.9994C22.0149 46.6425 21.5204 46.5583 21.1635 46.8114C20.8066 47.0645 20.7224 47.5589 20.9755 47.9158L22.4331 49.9714C17.9448 49.0934 13.8662 46.9379 10.5683 43.6867C6.94016 40.1103 4.62354 35.5708 3.86891 30.5594C3.80373 30.1267 3.40063 29.8284 2.96758 29.8941C2.53494 29.9592 2.237 30.3627 2.30218 30.7954C3.10827 36.1482 5.58204 40.9961 9.45602 44.8152C12.898 48.2082 17.1373 50.4828 21.8035 51.4596L19.9788 52.5233C19.6008 52.7438 19.4731 53.2288 19.6934 53.6067C19.8407 53.8592 20.1059 54 20.3786 54C20.5141 54 20.6514 53.9652 20.7768 53.8921L24.5417 51.697C24.7339 51.585 24.8701 51.3975 24.9171 51.1801C24.964 50.9627 24.9176 50.7358 24.7891 50.5543L22.2679 46.9994Z" fill="#044864"/>
<path d="M53.8921 33.2236L51.6969 29.4587C51.5849 29.2666 51.3974 29.1303 51.18 29.0834C50.963 29.0363 50.7358 29.0829 50.5543 29.2114L46.9991 31.7324C46.6422 31.9855 46.5581 32.4799 46.8111 32.8368C47.0641 33.1937 47.5588 33.2779 47.9156 33.0249L49.8793 31.6325C48.9716 36.2183 46.7351 40.3675 43.3677 43.6868C39.736 47.2667 35.1583 49.5185 30.129 50.1987C29.6953 50.2574 29.3915 50.6564 29.4501 51.0899C29.504 51.4874 29.8438 51.7761 30.2342 51.7761C30.2695 51.7761 30.3054 51.7737 30.3413 51.7689C35.7132 51.0423 40.6023 48.6377 44.4799 44.8152C48.0372 41.3085 50.4126 36.934 51.4015 32.0979L52.5231 34.0217C52.6703 34.2742 52.9356 34.415 53.2082 34.415C53.3437 34.415 53.481 34.3802 53.6064 34.3071C53.9846 34.0865 54.1124 33.6015 53.8921 33.2236Z" fill="#044864"/>
<path d="M32.3791 7.33514C32.5375 7.33514 32.6975 7.28768 32.8366 7.18907C33.1935 6.93594 33.2777 6.4415 33.0247 6.0846L31.6637 4.16528C36.1632 5.08982 40.3564 7.35782 43.6033 10.6511C47.2203 14.3197 49.5489 19.1446 50.1602 24.237C50.2085 24.6394 50.5504 24.9349 50.9457 24.9349C50.9772 24.9349 51.0091 24.933 51.0412 24.9291C51.4756 24.877 51.7854 24.4826 51.7333 24.0482C51.0805 18.6089 48.5939 13.456 44.7317 9.5387C41.281 6.03882 36.8287 3.62348 32.0484 2.62723L34.0214 1.47688C34.3994 1.25645 34.5272 0.771398 34.3068 0.393503C34.0864 0.015398 33.601 -0.112008 33.2235 0.108105L29.4583 2.30333C29.2663 2.41534 29.13 2.60286 29.0831 2.82023C29.036 3.03761 29.0824 3.26457 29.2111 3.44598L31.732 7.00112C31.8865 7.21891 32.1308 7.33514 32.3791 7.33514Z" fill="#044864"/>
</svg>
