<svg width="54" height="54" viewBox="0 0 54 54" fill="none" xmlns="http://www.w3.org/2000/svg">
<g clip-path="url(#clip0_341_474)">
<path fill-rule="evenodd" clip-rule="evenodd" d="M27 7.32556C27.3497 7.32547 27.6851 7.18657 27.9324 6.93938C28.1798 6.69218 28.3189 6.3569 28.3192 6.0072V1.31732C28.3192 0.967554 28.1802 0.632117 27.9329 0.384797C27.6856 0.137478 27.3502 -0.00146484 27.0004 -0.00146484C26.6506 -0.00146484 26.3152 0.137478 26.0679 0.384797C25.8206 0.632117 25.6816 0.967554 25.6816 1.31732V6.0072C25.6816 6.35685 25.8205 6.69218 26.0678 6.93942C26.315 7.18666 26.6503 7.32556 27 7.32556ZM46.2495 18.6618L50.5195 14.3921C50.6419 14.2696 50.739 14.1243 50.8052 13.9643C50.8715 13.8043 50.9055 13.6329 50.9055 13.4597C50.9054 13.2866 50.8713 13.1152 50.805 12.9552C50.7387 12.7953 50.6416 12.6499 50.5191 12.5275C50.3967 12.4051 50.2513 12.3081 50.0914 12.2418C49.9314 12.1756 49.7599 12.1415 49.5868 12.1416C49.4137 12.1416 49.2422 12.1757 49.0823 12.242C48.9223 12.3083 48.777 12.4055 48.6546 12.5279L44.3849 16.7976C44.2625 16.9201 44.1654 17.0654 44.0992 17.2254C44.033 17.3854 43.9989 17.5568 43.999 17.7299C43.999 17.9031 44.0331 18.0745 44.0994 18.2345C44.1657 18.3944 44.2628 18.5397 44.3853 18.6621C44.5077 18.7845 44.6531 18.8816 44.8131 18.9478C44.973 19.0141 45.1445 19.0481 45.3176 19.0481C45.4908 19.0481 45.6622 19.0139 45.8222 18.9476C45.9821 18.8814 46.1271 18.7842 46.2495 18.6618ZM43.2648 36.0482C43.2648 36.3978 43.4037 36.7332 43.651 36.9804C43.8982 37.2276 44.2336 37.3665 44.5832 37.3665H49.5846C49.9344 37.3665 50.2698 37.2276 50.5172 36.9803C50.7645 36.733 50.9034 36.3975 50.9034 36.0478C50.9034 35.698 50.7645 35.3626 50.5172 35.1152C50.2698 34.8679 49.9344 34.729 49.5846 34.729H44.5833C44.4101 34.729 44.2386 34.7631 44.0786 34.8294C43.9186 34.8957 43.7732 34.9929 43.6508 35.1154C43.5284 35.2379 43.4313 35.3834 43.3651 35.5434C43.2989 35.7035 43.2647 35.875 43.2648 36.0482ZM40.7447 47.927C40.4969 47.6814 40.1619 47.544 39.8131 47.5448C39.4642 47.5456 39.1299 47.6846 38.8832 47.9313C38.6366 48.1781 38.4978 48.5125 38.4971 48.8613C38.4965 49.2102 38.6341 49.5451 38.8798 49.7928L42.4075 53.3197C42.5299 53.4422 42.6753 53.5393 42.8353 53.6056C42.9953 53.6719 43.1668 53.706 43.34 53.706C43.5131 53.706 43.6846 53.6719 43.8446 53.6057C44.0046 53.5394 44.15 53.4422 44.2724 53.3198C44.3949 53.1973 44.492 53.052 44.5583 52.892C44.6246 52.732 44.6587 52.5605 44.6587 52.3873C44.6587 52.2142 44.6246 52.0427 44.5583 51.8827C44.4921 51.7227 44.3949 51.5773 44.2725 51.4548L40.7447 47.927ZM13.2543 47.927L9.43374 51.7485C9.18654 51.9959 9.04774 52.3313 9.04788 52.6811C9.04801 53.0308 9.18708 53.3662 9.43448 53.6134C9.68188 53.8606 10.0173 53.9994 10.3671 53.9992C10.7168 53.9991 11.0522 53.86 11.2994 53.6126L15.1192 49.7928C15.365 49.5451 15.5025 49.2102 15.5019 48.8613C15.5012 48.5125 15.3624 48.1781 15.1158 47.9313C14.8691 47.6846 14.5348 47.5456 14.186 47.5448C13.8371 47.544 13.5021 47.6814 13.2543 47.927ZM9.41528 34.7285H4.41343C4.06367 34.7285 3.72823 34.8674 3.48091 35.1147C3.23359 35.362 3.09465 35.6975 3.09465 36.0472C3.09465 36.397 3.23359 36.7324 3.48091 36.9798C3.72823 37.2271 4.06367 37.366 4.41343 37.366H9.41497C9.76473 37.366 10.1002 37.2271 10.3475 36.9798C10.5948 36.7324 10.7337 36.397 10.7337 36.0472C10.7337 35.6975 10.5948 35.362 10.3475 35.1147C10.1002 34.8674 9.76505 34.7285 9.41528 34.7285ZM5.34472 12.5279C5.22302 12.4023 5.07756 12.3022 4.91681 12.2334C4.75605 12.1646 4.58321 12.1284 4.40834 12.1271C4.23348 12.1257 4.06009 12.1591 3.89827 12.2254C3.73646 12.2917 3.58944 12.3895 3.46579 12.5131C3.34213 12.6368 3.24431 12.7838 3.17802 12.9456C3.11173 13.1074 3.0783 13.2808 3.07966 13.4557C3.08103 13.6305 3.11716 13.8034 3.18597 13.9641C3.25478 14.1249 3.35488 14.2704 3.48045 14.3921L7.7494 18.6618C7.99661 18.9091 8.33194 19.0481 8.68162 19.0482C8.85477 19.0482 9.02623 19.0142 9.18622 18.9479C9.3462 18.8817 9.49157 18.7846 9.61404 18.6622C9.7365 18.5398 9.83366 18.3945 9.89996 18.2346C9.96626 18.0746 10.0004 17.9032 10.0005 17.73C10.0005 17.5569 9.96644 17.3854 9.90022 17.2254C9.834 17.0654 9.73692 16.9201 9.61451 16.7976L5.34472 12.5279ZM13.834 26.1726C13.8337 23.9766 14.3828 21.8154 15.4312 19.8858C16.4796 17.9562 17.994 16.3195 19.8366 15.1247C21.6792 13.9299 23.7914 13.2151 25.9808 13.0452C28.1702 12.8754 30.3674 13.2559 32.3722 14.1521C34.377 15.0484 36.1258 16.4319 37.4593 18.1768C38.7927 19.9216 39.6686 21.9722 40.007 24.142C40.3454 26.3118 40.1357 28.5318 39.3969 30.5998C38.6582 32.6679 37.4138 34.5182 35.7772 35.9825C34.9895 36.6709 34.3606 37.5221 33.9338 38.4772C33.507 39.4323 33.2924 40.4687 33.305 41.5147V41.9621H28.3183V30.7341L28.6088 30.6294C29.6643 30.2505 30.5523 29.5112 31.1162 28.5418C31.6801 27.5724 31.8839 26.4351 31.6916 25.3303C31.4992 24.2254 30.9232 23.2238 30.0649 22.502C29.2066 21.7802 28.121 21.3844 26.9996 21.3844C25.8781 21.3844 24.7926 21.7802 23.9343 22.502C23.0759 23.2238 22.4999 24.2254 22.3076 25.3303C22.1152 26.4351 22.319 27.5724 22.8829 28.5418C23.4469 29.5112 24.3348 30.2505 25.3903 30.6294L25.6808 30.7341V41.9621H20.6947V41.5147C20.7073 40.4686 20.4926 39.4322 20.0657 38.4771C19.6387 37.522 19.0097 36.6709 18.2218 35.9825C16.8428 34.747 15.7393 33.235 14.9834 31.5448C14.2274 29.8546 13.8356 28.0241 13.834 26.1726ZM27 28.272C27.4202 28.2719 27.831 28.1472 28.1804 27.9137C28.5298 27.6802 28.8022 27.3483 28.963 26.96C29.1238 26.5718 29.1658 26.1445 29.0838 25.7323C29.0018 25.3202 28.7994 24.9416 28.5023 24.6444C28.2051 24.3472 27.8265 24.1448 27.4143 24.0628C27.0021 23.9808 26.5749 24.0229 26.1866 24.1837C25.7983 24.3445 25.4665 24.6168 25.2329 24.9662C24.9994 25.3156 24.8747 25.7264 24.8747 26.1467C24.8752 26.7102 25.0992 27.2505 25.4977 27.649C25.8962 28.0474 26.4365 28.2715 27 28.272Z" fill="#A6CDCB"/>
<path d="M33.3056 46.148V44.6006H20.6943V46.148C20.6952 46.3379 20.771 46.5197 20.9054 46.6538C21.0397 46.788 21.2217 46.8635 21.4115 46.864H32.5873C32.7772 46.8635 32.9593 46.7879 33.0938 46.6538C33.2283 46.5197 33.3044 46.338 33.3056 46.148Z" fill="#044864"/>
<path d="M29.3745 52.0294C30.077 51.5593 30.6241 50.8911 30.9464 50.1096L31.1977 49.5016H22.8023L23.0543 50.1096C23.3766 50.8911 23.9237 51.5593 24.6262 52.0294C25.3287 52.4996 26.155 52.7506 27.0004 52.7506C27.8457 52.7506 28.672 52.4996 29.3745 52.0294Z" fill="#044864"/>
</g>
<defs>
<clipPath id="clip0_341_474">
<rect width="54" height="54" fill="white"/>
</clipPath>
</defs>
</svg>
